<svg xmlns="http://www.w3.org/2000/svg" width="300" height="219.13789">
  <g transform="translate(-361.577241 -133.205418) scale(1.0742152)">
    <path fill="#e20025" d="m343.55851 328.00067 12.46891-98.06858 223.26657 8.39794 14.70107 71.60102-250.43655 18.06962z"/>
    <path fill="#ffd900" d="M404.40767 263.89223c-3.70258-1.39237-9.23149-2.31021-13.9643-2.31021-11.00786 0-16.73969 3.93985-16.73969 11.58541 0 10.47713 13.6927 9.36573 13.6927 13.48978 0 1.1114-1.12388 1.94495-2.57245 1.94495-3.10318 0-6.70899-2.26963-8.76633-5.5133l-3.80248 11.54795c4.9732 1.90124 10.17118 2.59431 15.98106 2.59431 11.34814 0 16.78027-4.174 16.78027-11.35751 0-2.68797-.8398-4.87331-2.43197-6.44675-3.94298-3.88678-13.40236-5.15115-13.40236-7.65805 0-1.19569.83979-2.03236 2.70669-2.03236 3.19059 0 6.33436 1.85441 8.67267 5.05749l3.84619-10.90171zm4.96384 13.54285h7.78292v19.24034h15.45971v-19.24034h7.78604v-15.29736h-31.02867v15.29736zm35.97066 1.9512c0 10.01196 7.87033 17.84484 17.89167 17.84484 10.03694 0 17.90415-7.83288 17.90415-17.84484 0-9.97451-7.86721-17.80426-17.90415-17.80426-10.02134 0-17.89167 7.82975-17.89167 17.80426m14.43571-.93033c0-2.08856 1.45169-3.62142 3.45596-3.62142 2.02299 0 3.4778 1.53286 3.4778 3.62142 0 2.08543-1.45481 3.61205-3.4778 3.61205-2.00427 0-3.45596-1.52662-3.45596-3.61205m29.52079-16.31823v34.5377h15.46594v-12.79984c4.17088 0 6.14392 3.6183 6.79952 12.79984h16.03102c-.71492-6.63719-2.99704-12.33155-6.7527-16.55237 2.58182-1.75764 3.98668-4.44873 3.98668-7.64556 0-5.15116-3.89302-10.33977-12.70617-10.33977h-22.82429zm15.46594 7.08986h.94594c2.89713 0 3.65264 1.94495 3.65264 3.4341 0 2.21656-1.3674 3.24367-4.16775 3.24367h-.43083v-6.67777zm51.21182 27.44784v-15.07571l13.30871-19.46199H553.635l-5.38529 7.83287-5.39467-7.83287h-15.6595l13.31807 19.46199v15.07571h15.46282z"/>
    <path fill="#004e98" d="m561.50846 130.72089-13.95182 27.913-8.18877-29.17113-54.35559-5.46022 11.40434 27.96295c-7.64556-3.9617-16.32447-6.20011-25.52786-6.20011-10.06504 0-19.50258 2.68796-27.6414 7.36459l-3.23117-25.68396-103.41954 11.12649 5.43525 45.75784 26.23966-6.34372 8.82564 78.50668 49.67896-5.03564-2.11665-19.30901c9.96201 14.91336 26.95145 24.74114 46.22925 24.74114 17.46397 0 33.03918-8.06702 43.23846-20.67329l-1.11452 9.52807 48.70493 4.20209 4.41438-41.14054 49.73828-73.25563-54.36183-4.8296zm-143.55169 40.36318 6.16265.25912c-2.00115 3.10943-3.69634 6.43738-5.0575 9.93704l-1.10515-10.19616zm46.92231 29.98908c0-3.32484 2.69733-6.01905 6.01592-6.01905 3.31547 0 6.0128 2.69421 6.0128 6.01905 0 3.31859-2.69733 6.01904-6.0128 6.01904-3.31859 0-6.01592-2.70045-6.01592-6.01904"/>
    <path fill="#ffd900" d="M457.49264 201.00134c0 7.28654 5.90354 13.19632 13.19007 13.19632 7.29591 0 13.1932-5.90978 13.1932-13.19632 0-7.29278-5.89729-13.19943-13.1932-13.19943-7.28653 0-13.19007 5.90665-13.19007 13.19943m-34.26609.59317c0-11.37937 4.23019-21.79094 11.22951-29.80488 2.14788.0904 8.71013.38087 11.22327.48077-.0874-1.43296-.85228-6.69025-1.15823-9.14095 7.34898-4.69224 16.12467-7.42391 25.56221-7.42391 25.88688 0 46.85988 20.54842 46.85988 45.88897 0 25.34367-20.973 45.89208-46.85988 45.89208-25.88689 0-46.85676-20.54841-46.85676-45.89208"/>
    <path fill="#ffd900" d="M510.32474 162.96711c9.64358 9.90894 15.60955 23.39872 15.72506 38.27462l.01.46204c0 3.85556-.39024 7.61122-1.13638 11.242l-2.41323 24.635 30.85696 2.8784 3.54649-34.42218 42.40491-62.75977-33.76658-2.93772-21.00422 43.02617-12.69368-45.13034-33.59176-3.35918 12.06306 28.09096zm-163.87221-17.70124 85.62776-9.3189 3.14689 25.54972-28.34071-1.05521 9.24086 81.23524.19355.002-31.5188 3.15001-8.3917-80.27369-26.8016 7.16167-3.15625-26.45195z"/>
  </g>
</svg>